<svg role="img" viewBox="0 0 24 24" xmlns="http://www.w3.org/2000/svg"><title>GitHub</title><path d="M12 0C5.37 0 0 5.37 0 12c0 5.3 3.438 9.8 8.205 11.38.6.113.82-.263.82-.58 0-.29-.01-1.25-.015-2.27-3.338.73-4.042-1.61-4.042-1.61-.546-1.388-1.333-1.757-1.333-1.757-1.09-.745.083-.73.083-.73 1.205.085 1.838 1.236 1.838 1.236 1.07 1.837 2.805 1.305 3.49.998.108-.776.42-1.305.763-1.605-2.665-.305-5.467-1.333-5.467-5.93 0-1.313.47-2.38 1.236-3.22-.125-.307-.54-1.524.12-3.176 0 0 1.008-.322 3.3 1.23.96-.267 1.98-.4 3-.405 1.02.005 2.04.138 3 .405 2.28-1.552 3.285-1.23 3.285-1.23.665 1.652.25 2.87.125 3.176.77.84 1.235 1.907 1.235 3.22 0 4.61-2.805 5.625-5.475 5.92.43.37.81 1.103.81 2.22 0 1.606-.015 2.896-.015 3.286 0 .32.215.7.825.58C20.565 21.795 24 17.3 24 12c0-6.63-5.37-12-12-12z"/></svg>
